<svg width="161" height="40" viewBox="0 0 161 40" fill="none" xmlns="http://www.w3.org/2000/svg">
<path d="M75.4513 11.248V28H72.0913V17.104L67.6033 28H65.0593L60.5473 17.104V28H57.1873V11.248H61.0033L66.3313 23.704L71.6593 11.248H75.4513ZM91.4932 14.704L83.2612 34.288H79.6852L82.5652 27.664L77.2372 14.704H81.0052L84.4372 23.992L87.9172 14.704H91.4932ZM98.2072 19.6C98.2072 17.952 98.5752 16.48 99.3112 15.184C100.063 13.872 101.079 12.856 102.359 12.136C103.655 11.4 105.103 11.032 106.703 11.032C108.575 11.032 110.215 11.512 111.623 12.472C113.031 13.432 114.015 14.76 114.575 16.456H110.711C110.327 15.656 109.783 15.056 109.079 14.656C108.391 14.256 107.591 14.056 106.679 14.056C105.703 14.056 104.831 14.288 104.063 14.752C103.311 15.2 102.719 15.84 102.287 16.672C101.871 17.504 101.663 18.48 101.663 19.6C101.663 20.704 101.871 21.68 102.287 22.528C102.719 23.36 103.311 24.008 104.063 24.472C104.831 24.92 105.703 25.144 106.679 25.144C107.591 25.144 108.391 24.944 109.079 24.544C109.783 24.128 110.327 23.52 110.711 22.72H114.575C114.015 24.432 113.031 25.768 111.623 26.728C110.231 27.672 108.591 28.144 106.703 28.144C105.103 28.144 103.655 27.784 102.359 27.064C101.079 26.328 100.063 25.312 99.3112 24.016C98.5752 22.72 98.2072 21.248 98.2072 19.6ZM116.581 21.304C116.581 19.96 116.845 18.768 117.373 17.728C117.917 16.688 118.645 15.888 119.557 15.328C120.485 14.768 121.517 14.488 122.653 14.488C123.645 14.488 124.509 14.688 125.245 15.088C125.997 15.488 126.597 15.992 127.045 16.6V14.704H130.429V28H127.045V26.056C126.613 26.68 126.013 27.2 125.245 27.616C124.493 28.016 123.621 28.216 122.629 28.216C121.509 28.216 120.485 27.928 119.557 27.352C118.645 26.776 117.917 25.968 117.373 24.928C116.845 23.872 116.581 22.664 116.581 21.304ZM127.045 21.352C127.045 20.536 126.885 19.84 126.565 19.264C126.245 18.672 125.813 18.224 125.269 17.92C124.725 17.6 124.141 17.44 123.517 17.44C122.893 17.44 122.317 17.592 121.789 17.896C121.261 18.2 120.829 18.648 120.493 19.24C120.173 19.816 120.013 20.504 120.013 21.304C120.013 22.104 120.173 22.808 120.493 23.416C120.829 24.008 121.261 24.464 121.789 24.784C122.333 25.104 122.909 25.264 123.517 25.264C124.141 25.264 124.725 25.112 125.269 24.808C125.813 24.488 126.245 24.04 126.565 23.464C126.885 22.872 127.045 22.168 127.045 21.352ZM138.799 28.216C137.711 28.216 136.735 28.024 135.871 27.64C135.007 27.24 134.319 26.704 133.807 26.032C133.311 25.36 133.039 24.616 132.991 23.8H136.375C136.439 24.312 136.687 24.736 137.119 25.072C137.567 25.408 138.119 25.576 138.775 25.576C139.415 25.576 139.911 25.448 140.263 25.192C140.631 24.936 140.815 24.608 140.815 24.208C140.815 23.776 140.591 23.456 140.143 23.248C139.711 23.024 139.015 22.784 138.055 22.528C137.063 22.288 136.247 22.04 135.607 21.784C134.983 21.528 134.439 21.136 133.975 20.608C133.527 20.08 133.303 19.368 133.303 18.472C133.303 17.736 133.511 17.064 133.927 16.456C134.359 15.848 134.967 15.368 135.751 15.016C136.551 14.664 137.487 14.488 138.559 14.488C140.143 14.488 141.407 14.888 142.351 15.688C143.295 16.472 143.815 17.536 143.911 18.88H140.695C140.647 18.352 140.423 17.936 140.023 17.632C139.639 17.312 139.119 17.152 138.463 17.152C137.855 17.152 137.383 17.264 137.047 17.488C136.727 17.712 136.567 18.024 136.567 18.424C136.567 18.872 136.791 19.216 137.239 19.456C137.687 19.68 138.383 19.912 139.327 20.152C140.287 20.392 141.079 20.64 141.703 20.896C142.327 21.152 142.863 21.552 143.311 22.096C143.775 22.624 144.015 23.328 144.031 24.208C144.031 24.976 143.815 25.664 143.383 26.272C142.967 26.88 142.359 27.36 141.559 27.712C140.775 28.048 139.855 28.216 138.799 28.216ZM154.277 14.512C155.285 14.512 156.181 14.736 156.965 15.184C157.749 15.616 158.357 16.264 158.789 17.128C159.237 17.976 159.461 19 159.461 20.2V28H156.101V20.656C156.101 19.6 155.837 18.792 155.309 18.232C154.781 17.656 154.061 17.368 153.149 17.368C152.221 17.368 151.485 17.656 150.941 18.232C150.413 18.792 150.149 19.6 150.149 20.656V28H146.789V10.24H150.149V16.36C150.581 15.784 151.157 15.336 151.877 15.016C152.597 14.68 153.397 14.512 154.277 14.512Z" fill="white"/>
<path d="M34.1422 5.85781C30.3647 2.08031 25.3422 0 20 0C14.6578 0 9.63531 2.08031 5.85781 5.85781C2.08031 9.63531 0 14.6578 0 20C0 25.3422 2.08039 30.3646 5.85781 34.1422C9.63523 37.9198 14.6578 40 20 40C25.3422 40 30.3647 37.9197 34.1422 34.1422C37.9197 30.3647 40 25.3422 40 20C40 14.6578 37.9196 9.63539 34.1422 5.85781Z" fill="#33CC95"/>
<g clip-path="url(#clip0_35212_417)">
<path d="M20.5714 8V33.1429" stroke="white" stroke-width="2" stroke-linecap="round" stroke-linejoin="round"/>
<path d="M26.2857 12.5714H17.7143C16.6534 12.5714 15.636 12.9929 14.8859 13.743C14.1357 14.4931 13.7143 15.5106 13.7143 16.5714C13.7143 17.6323 14.1357 18.6497 14.8859 19.3999C15.636 20.15 16.6534 20.5714 17.7143 20.5714H23.4286C24.4894 20.5714 25.5069 20.9929 26.257 21.743C27.0072 22.4932 27.4286 23.5106 27.4286 24.5714C27.4286 25.6323 27.0072 26.6497 26.257 27.3999C25.5069 28.15 24.4894 28.5714 23.4286 28.5714H13.7143" stroke="white" stroke-width="2" stroke-linecap="round" stroke-linejoin="round"/>
</g>
<defs>
<clipPath id="clip0_35212_417">
<rect width="27.4286" height="27.4286" fill="white" transform="translate(6.85715 6.85714)"/>
</clipPath>
</defs>
</svg>
